<?xml version="1.0" encoding="utf-8"?>
<!-- Generator: Adobe Illustrator 18.0.0, SVG Export Plug-In . SVG Version: 6.00 Build 0)  -->
<!DOCTYPE svg PUBLIC "-//W3C//DTD SVG 1.1//EN" "http://www.w3.org/Graphics/SVG/1.1/DTD/svg11.dtd">
<svg version="1.1" id="Layer_1" xmlns="http://www.w3.org/2000/svg" xmlns:xlink="http://www.w3.org/1999/xlink" x="0px" y="0px"
	 viewBox="0 25.1 61 12.4" enable-background="new 0 25.1 61 12.4" xml:space="preserve">
<rect x="-0.3" y="25.1" fill="#283E55" width="61.3" height="12.4"/>
<g>
	<g>
		<path fill="#FFFFFF" d="M8.5,32.8c-0.2,0-0.4-0.2-0.4-0.4c0-0.2,0.1-0.3,0.2-0.3c-0.1,0-0.2-0.1-0.2-0.3c0-0.2,0.1-0.3,0.4-0.3
			h0.7v1.2c0,0,0,0.1-0.1,0.1L8.5,32.8L8.5,32.8z M8.6,32.6H9v-0.4H8.6c-0.1,0-0.2,0.1-0.2,0.2C8.4,32.5,8.4,32.6,8.6,32.6z M8.6,32
			h0.4v-0.3H8.6c-0.1,0-0.2,0.1-0.2,0.2C8.4,31.9,8.5,32,8.6,32z"/>
	</g>
	<g>
		<path fill="#FFFFFF" d="M9,32.8v-1.3h0.6c0.3,0,0.4,0.2,0.4,0.4s-0.2,0.4-0.4,0.4H9.2v0.4c0,0,0,0.1-0.1,0.1L9,32.8L9,32.8z
			 M9.7,31.9c0-0.1-0.1-0.2-0.2-0.2H9.2v0.4h0.3C9.6,32.1,9.7,32,9.7,31.9z"/>
	</g>
</g>
<circle fill="#FFFFFF" cx="4.8" cy="27.3" r="0.7"/>
<path fill="#FFFFFF" d="M3,35.4c0,0-0.2,0.4,0.2,0.5c0.3,0.1,0.6-0.3,0.6-0.3l1.1-3.1c0,0,0.1-0.2,0.3-0.3c0.2,0,0.2,0.4,0.2,0.4
	L5,35.9c0,0,0,0.4,0.3,0.4c0.4,0,0.5-0.3,0.5-0.3l0.4-4.3l0,0l0.1-2.9c0-0.1,0.4-0.9,1-1.3C7.9,27.1,8.1,27,8.1,27s0.8-0.2,0.5-0.6
	c-0.2-0.4-1.3,0.1-2,0.7c-0.5,0.4-0.8,0.9-1,1.3c-0.1,0-0.3,0-0.4,0c-0.5,0-0.9,0-1,0.1l0,0c0,0,0,0,0,0C4,28.6,4,28.6,4,28.6l0,0
	c-0.2,0.2-0.7,0.5-0.9,1.1c-0.2,0.8,0.6,1.6,0.6,1.6s0.2,0.3,0.5,0.2l0,0.1l0,0c0,0.3-0.3,1.6-0.7,2.5C3.1,35.1,3,35.4,3,35.4z
	 M4.4,30.7C4.2,30.5,4,30.2,4,30c-0.1-0.2,0-0.3,0.1-0.5c0.1,0.1,0.2,0.3,0.3,0.6C4.4,30.5,4.4,30.7,4.4,30.7z"/>
<circle fill="#FFFFFF" cx="13.1" cy="27.3" r="0.7"/>
<path fill="#FFFFFF" d="M14.4,34.1c-0.3-0.9-0.6-2.2-0.7-2.5l0,0l0-0.1c0.3,0,0.5-0.2,0.5-0.2s0.8-0.8,0.6-1.6
	c-0.2-0.6-0.7-0.9-0.9-1.1l0,0c0,0,0,0-0.1-0.1h0l0,0c-0.2-0.1-0.5-0.2-1-0.1c-0.2,0-0.3,0-0.4,0c-0.2-0.4-0.5-0.9-1-1.3
	c-0.7-0.6-1.8-1.1-2-0.7C9,26.8,9.8,27,9.8,27s0.2,0.1,0.8,0.5c0.6,0.4,0.9,1.2,1,1.3l0.1,2.9l0,0L12,36c0,0,0.1,0.3,0.5,0.3
	s0.3-0.4,0.3-0.4l-0.2-3.2c0,0,0-0.4,0.2-0.4c0.2,0,0.3,0.3,0.3,0.3l1.1,3.1c0,0,0.2,0.4,0.6,0.3c0.4-0.2,0.2-0.5,0.2-0.5
	S14.9,35.1,14.4,34.1z M13.6,30.2c0-0.3,0.2-0.5,0.3-0.6c0.1,0.1,0.1,0.3,0.1,0.5c-0.1,0.2-0.2,0.5-0.4,0.7
	C13.6,30.7,13.6,30.5,13.6,30.2z"/>
<g>
	<text transform="matrix(1 0 0 1 17.6309 32.5254)" fill="#EEEEEE" font-family="'ProximaNovaT-Thin'" font-size="4.3111">Bowen</text>
	<text transform="matrix(1 0 0 1 30.4297 32.4248)" fill="#EEEEEE" font-family="'ProximaNova-Semibold'" font-size="4.3111">PropOpps</text>
</g>
<g>
	<path fill="#FFFFFF" d="M10.8,30.5l-1.9-2c-0.1-0.1-0.1-0.3,0-0.4l0,0C9,28,9.2,28,9.3,28.1l1.9,2c0.1,0.1,0.1,0.3,0,0.4l0,0
		C11,30.6,10.9,30.6,10.8,30.5z"/>
	<path fill="#FFFFFF" d="M7.3,30.5l1.9-2c0.1-0.1,0.1-0.3,0-0.4l0,0c-0.1-0.1-0.3-0.1-0.4,0l-1.9,2c-0.1,0.1-0.1,0.3,0,0.4l0,0
		C7.1,30.6,7.2,30.6,7.3,30.5z"/>
	<path fill="#FFFFFF" d="M10.5,34.7L10.5,34.7c-0.1,0-0.2-0.1-0.2-0.2v-4.5c0-0.1,0.1-0.2,0.2-0.2l0,0c0.1,0,0.2,0.1,0.2,0.2v4.5
		C10.7,34.6,10.6,34.7,10.5,34.7z"/>
	<path fill="#FFFFFF" d="M7.6,34.7L7.6,34.7c-0.1,0-0.2-0.1-0.2-0.2v-4.5c0-0.1,0.1-0.2,0.2-0.2l0,0c0.1,0,0.2,0.1,0.2,0.2v4.5
		C7.8,34.6,7.7,34.7,7.6,34.7z"/>
</g>
<path fill="#FFFFFF" d="M10.6,34.7h-3c-0.1,0-0.2-0.1-0.2-0.2v0c0-0.1,0.1-0.2,0.2-0.2h3c0.1,0,0.2,0.1,0.2,0.2v0
	C10.7,34.6,10.7,34.7,10.6,34.7z"/>
</svg>
