<?xml version="1.0" encoding="utf-8"?>
<!-- Generator: Adobe Illustrator 18.0.0, SVG Export Plug-In . SVG Version: 6.00 Build 0)  -->
<!DOCTYPE svg PUBLIC "-//W3C//DTD SVG 1.1//EN" "http://www.w3.org/Graphics/SVG/1.1/DTD/svg11.dtd">
<svg version="1.1" id="Layer_1" xmlns="http://www.w3.org/2000/svg" xmlns:xlink="http://www.w3.org/1999/xlink" x="0px" y="0px"
	 viewBox="0 0 392 102.7" enable-background="new 0 0 392 102.7" xml:space="preserve">
<text transform="matrix(1 0 0 1 103.4803 62.4207)" fill="#EEEEEE" font-family="'ProximaNovaT-Thin'" font-size="35.2315">Bowen</text>
<text transform="matrix(1 0 0 1 220.3842 61.6107)" fill="#EEEEEE" font-family="'ProximaNova-Semibold'" font-size="35.2315">PropOpps</text>
<circle fill="#3578BD" stroke="#EEEEEE" stroke-width="2" stroke-miterlimit="10" cx="52.6" cy="52.3" r="41.9"/>
<g>
	<text transform="matrix(-1 0 0 1 56.636 65.4245)" fill="#FFFFFF" font-family="'ProximaNova-Semibold'" font-size="29">B</text>
	<g>
		<text transform="matrix(1 0 0 1 49.7483 65.4245)" fill="#FFFFFF" font-family="'ProximaNova-Semibold'" font-size="29">P</text>
	</g>
</g>
<g>
	<path fill="#EEEEEE" d="M28.9,47.1L28.9,47.1c-1-1.2-0.8-2.9,0.4-3.9l21.5-17.7c1.2-1,2.9-0.8,3.9,0.4l0,0c1,1.2,0.8,2.9-0.4,3.9
		L32.8,47.5C31.6,48.4,29.9,48.3,28.9,47.1z"/>
	<path fill="#EEEEEE" d="M31,42.8L31,42.8c1.5,0,2.7,1.2,2.7,2.7l0,22.4c0,1.5-1.2,2.7-2.7,2.7h0c-1.5,0-2.7-1.2-2.7-2.7l0-22.4
		C28.3,44.1,29.5,42.8,31,42.8z"/>
	<path fill="#EEEEEE" d="M74.1,42.8L74.1,42.8c1.5,0,2.7,1.2,2.7,2.7V68c0,1.5-1.2,2.7-2.7,2.7h0c-1.5,0-2.7-1.2-2.7-2.7V45.6
		C71.4,44.1,72.6,42.8,74.1,42.8z"/>
	<path fill="#EEEEEE" d="M76.3,47.1L76.3,47.1c1-1.2,0.8-2.9-0.4-3.9L54.3,25.5c-1.2-1-2.9-0.8-3.9,0.4l0,0c-1,1.2-0.8,2.9,0.4,3.9
		l21.5,17.7C73.6,48.4,75.3,48.3,76.3,47.1z"/>
	<circle fill="#EEEEEE" cx="31" cy="36.2" r="3.5"/>
	<circle fill="#EEEEEE" cx="74.1" cy="36.2" r="3.5"/>
</g>
</svg>
